<svg width="17" height="18" viewBox="0 0 17 18" fill="none" xmlns="http://www.w3.org/2000/svg">
<path d="M15.2183 0.500686H0.891106C0.405668 0.500686 0.000682129 0.912175 0.000682129 1.40733V3.03272C0.000682129 3.54022 0.405668 3.94074 0.891788 3.94074H15.2177C15.7154 3.94074 16.1088 3.52788 16.1204 3.0334V1.41899C16.1204 0.912861 15.7154 0.5 15.2183 0.5V0.500686ZM15.2183 9.54797H0.891106C0.773819 9.54819 0.657742 9.57182 0.549601 9.6175C0.441461 9.66317 0.343409 9.72999 0.261128 9.81406C0.0936161 9.98493 -0.000204401 10.2153 3.34377e-07 10.4553V12.0807C3.34377e-07 12.5882 0.404986 12.988 0.891106 12.988H15.217C15.7147 12.988 16.1081 12.5875 16.1197 12.0814V10.4553C16.1197 9.94848 15.7147 9.54797 15.2177 9.54797H15.2183ZM8.95742 14.0606H0.891788C0.655205 14.0606 0.428167 14.156 0.26181 14.326C0.0942979 14.4969 0.000477394 14.7273 0.000682129 14.9673V16.5927C0.000682129 17.1002 0.405668 17.5 0.891788 17.5H8.94583C9.44354 17.5 9.83694 17.0885 9.83694 16.5934V14.9673C9.83994 14.8492 9.81941 14.7317 9.77656 14.6218C9.7337 14.5118 9.6694 14.4116 9.58742 14.327C9.50545 14.2425 9.40748 14.1753 9.29928 14.1294C9.19107 14.0835 9.07484 14.0599 8.95742 14.0599V14.0606ZM16.1204 5.02364H0.891788C0.655205 5.02364 0.428167 5.11966 0.26181 5.28905C0.0941318 5.46009 0.000297862 5.69076 0.000682129 5.93097V7.55636C0.000682129 8.06318 0.405668 8.46369 0.891788 8.46369H16.1094C16.6072 8.46369 16.9999 8.05152 16.9999 7.55636V5.93097C17.0019 5.81317 16.9806 5.69614 16.9374 5.58663C16.8942 5.47713 16.8298 5.37732 16.7481 5.29296C16.6663 5.2086 16.5687 5.14137 16.461 5.09515C16.3533 5.04892 16.2375 5.02462 16.1204 5.02364Z" fill="#00C3F7"/>
</svg>
